<svg xmlns="http://www.w3.org/2000/svg" xmlns:xlink="http://www.w3.org/1999/xlink" width="1728" zoomAndPan="magnify" viewBox="0 0 1296 1727.999927" height="2304" preserveAspectRatio="xMidYMid meet" version="1.0"><defs><clipPath id="5bb279230e"><path d="M 297.574219 538.285156 L 1003.324219 538.285156 L 1003.324219 1189.84375 L 297.574219 1189.84375 Z M 297.574219 538.285156 " clip-rule="nonzero"/></clipPath><clipPath id="83eaf6b1ee"><path d="M 0 754 L 279 754 L 279 1317 L 0 1317 Z M 0 754 " clip-rule="nonzero"/></clipPath><clipPath id="2ff4254407"><path d="M 400.558594 1011.972656 L -25.089844 1387.691406 L -337.773438 1033.453125 L 87.875 657.734375 Z M 400.558594 1011.972656 " clip-rule="nonzero"/></clipPath><clipPath id="5a2d7ca1eb"><path d="M 400.558594 1011.972656 L -25.089844 1387.691406 L -337.773438 1033.453125 L 87.875 657.734375 Z M 400.558594 1011.972656 " clip-rule="nonzero"/></clipPath><clipPath id="d01f82b541"><path d="M 400.523438 1011.933594 L -27.160156 1389.449219 L -341.570312 1033.253906 L 86.113281 655.738281 Z M 400.523438 1011.933594 " clip-rule="nonzero"/></clipPath><clipPath id="b385474806"><path d="M 400.523438 1011.933594 L -25.527344 1388.007812 L -338.328125 1033.644531 L 87.726562 657.566406 Z M 400.523438 1011.933594 " clip-rule="nonzero"/></clipPath><clipPath id="47181891ef"><path d="M 1040 486 L 1296 486 L 1296 1061 L 1040 1061 Z M 1040 486 " clip-rule="nonzero"/></clipPath><clipPath id="f4965a31b2"><path d="M 966.308594 996.117188 L 1098.164062 451.605469 L 1551.558594 561.394531 L 1419.703125 1105.90625 Z M 966.308594 996.117188 " clip-rule="nonzero"/></clipPath><clipPath id="95eb52a1b3"><path d="M 966.308594 996.117188 L 1098.164062 451.605469 L 1551.558594 561.394531 L 1419.703125 1105.90625 Z M 966.308594 996.117188 " clip-rule="nonzero"/></clipPath><clipPath id="6afa6dd3fb"><path d="M 966.359375 996.128906 L 1098.84375 449.011719 L 1554.746094 559.40625 L 1422.257812 1106.527344 Z M 966.359375 996.128906 " clip-rule="nonzero"/></clipPath><clipPath id="22ae1def1b"><path d="M 966.359375 996.128906 L 1098.339844 451.097656 L 1551.898438 560.925781 L 1419.917969 1105.960938 Z M 966.359375 996.128906 " clip-rule="nonzero"/></clipPath><clipPath id="bf407283af"><path d="M 0 524 L 1296 524 L 1296 1289 L 0 1289 Z M 0 524 " clip-rule="nonzero"/></clipPath><clipPath id="84800a439b"><path d="M 208.300781 244.648438 L 1550.953125 1018.097656 L 1250.707031 1539.304688 L -91.945312 765.851562 Z M 208.300781 244.648438 " clip-rule="nonzero"/></clipPath><clipPath id="7684c8aef3"><path d="M 208.300781 244.648438 L 1550.953125 1018.097656 L 1250.707031 1539.304688 L -91.945312 765.851562 Z M 208.300781 244.648438 " clip-rule="nonzero"/></clipPath><clipPath id="f859f73787"><path d="M 208.300781 244.648438 L 1550.953125 1018.097656 L 1250.707031 1539.304688 L -91.945312 765.851562 Z M 208.300781 244.648438 " clip-rule="nonzero"/></clipPath></defs><rect x="-129.6" width="1555.2" fill="#ffffff" y="-172.799993" height="2073.599912" fill-opacity="1"/><rect x="-129.6" width="1555.2" fill="#ffffff" y="-172.799993" height="2073.599912" fill-opacity="1"/><rect x="-129.6" width="1555.2" fill="#fff2f2" y="-172.799993" height="2073.599912" fill-opacity="1"/><path fill="#fbdfcf" d="M 644.816406 247.007812 C 591.648438 250.003906 539.980469 265.726562 489.058594 282.203125 C 402.195312 309.910156 310.085938 347.351562 264.410156 425.976562 C 230.710938 485.136719 229.214844 557.023438 234.457031 625.167969 C 239.699219 693.3125 250.179688 762.203125 236.703125 828.851562 C 226.21875 881.269531 201.507812 928.445312 188.777344 980.113281 C 176.796875 1028.789062 176.046875 1079.707031 179.042969 1129.878906 C 181.289062 1172.5625 187.28125 1216.746094 207.496094 1254.9375 C 226.96875 1290.128906 257.667969 1318.585938 289.871094 1342.550781 C 359.511719 1394.21875 438.886719 1431.660156 522.753906 1454.875 C 582.660156 1471.347656 646.3125 1481.082031 707.71875 1472.097656 C 789.339844 1460.117188 863.472656 1417.433594 927.875 1365.761719 C 975.796875 1326.824219 1019.980469 1282.640625 1051.429688 1228.726562 C 1079.886719 1180.050781 1096.359375 1126.136719 1108.339844 1070.722656 C 1134.550781 950.160156 1136.796875 822.109375 1103.097656 703.792969 C 1079.136719 619.925781 1038.699219 542.796875 998.261719 465.664062 C 961.570312 396.023438 907.65625 323.386719 869.464844 303.167969 C 787.09375 258.238281 776.609375 247.007812 644.816406 247.007812 Z M 644.816406 247.007812 " fill-opacity="1" fill-rule="nonzero"/><g clip-path="url(#5bb279230e)"><path fill="#fff2f2" d="M 495.441406 1164.59375 C 419.25 1145.671875 356.785156 1090.472656 328.714844 1017.226562 C 102.589844 428.070312 1190.164062 358.960938 975.757812 941.789062 C 880.394531 1200.746094 717.050781 1219.730469 495.441406 1164.59375 " fill-opacity="1" fill-rule="nonzero"/></g><g clip-path="url(#83eaf6b1ee)"><g clip-path="url(#2ff4254407)"><g clip-path="url(#5a2d7ca1eb)"><g clip-path="url(#d01f82b541)"><g clip-path="url(#b385474806)"><path fill="#f8c7ab" d="M 274.5625 985.480469 C 207.441406 1303.097656 -138.382812 1521.925781 -243.773438 1019.140625 C -252.15625 979.011719 -235.4375 937.660156 -201.90625 914.074219 L -25.816406 789.902344 C 116.738281 689.390625 310.609375 814.820312 274.5625 985.480469 " fill-opacity="1" fill-rule="nonzero"/></g></g></g></g></g><g clip-path="url(#47181891ef)"><g clip-path="url(#f4965a31b2)"><g clip-path="url(#95eb52a1b3)"><g clip-path="url(#6afa6dd3fb)"><g clip-path="url(#22ae1def1b)"><path fill="#f8c7ab" d="M 1083.242188 946.324219 C 957.871094 651.46875 1113.894531 278.980469 1483.597656 626.109375 C 1513.082031 653.824219 1522.949219 696.722656 1509.160156 734.757812 L 1436.925781 934.734375 C 1378.441406 1096.617188 1150.617188 1104.746094 1083.242188 946.324219 " fill-opacity="1" fill-rule="nonzero"/></g></g></g></g></g><g clip-path="url(#bf407283af)"><g clip-path="url(#84800a439b)"><g clip-path="url(#7684c8aef3)"><g clip-path="url(#f859f73787)"><path stroke-linecap="butt" transform="matrix(0.082632, 0.0476011, 0.0475944, -0.0826203, -92.125856, 765.992336)" fill="none" stroke-linejoin="miter" d="M 7.465719 20.378157 C 428.748307 179.459741 850.015847 338.485376 1239.063448 454.551472 C 1628.090602 570.653068 1984.938711 643.724128 2324.537047 667.378437 C 2664.120336 690.976796 2986.524841 665.199305 3106.890806 617.908718 C 3227.292266 570.638581 3145.563751 501.84995 2885.541802 540.54359 C 2625.428418 579.231831 2186.965658 725.417393 1763.535119 923.146205 C 1340.084133 1120.910517 931.700863 1370.238528 592.105436 1479.866907 C 252.494961 1589.439336 -18.312623 1559.368081 121.362162 1542.161233 C 261.072442 1524.974835 811.336079 1520.693742 1247.677908 1589.448258 C 1683.999291 1658.238272 2006.434361 1800.084345 2180.508484 1825.910692 C 2354.623501 1851.66604 2380.413065 1761.422114 2599.638776 1847.398064 C 2818.884934 1933.338515 3231.561838 2195.590292 3545.39898 2401.936365 C 3859.180182 2608.297487 4074.177562 2758.737857 4239.665899 2838.291466 C 4405.139189 2917.789126 4521.215318 2926.369927 4639.461995 2997.333713 C 4757.637684 3068.256601 4878.024814 3201.491475 4987.639165 3313.295676 C 5097.273963 3425.064378 5196.141381 3515.310958 5322.960525 3562.609594 C 5449.779668 3609.908229 5604.535488 3614.20297 5797.986513 3659.325267 C 5991.417092 3704.483064 6223.542876 3790.468416 6384.774512 3842.038606 C 6545.985702 3893.644296 6636.231754 3910.793925 6681.364537 3874.293323 C 6726.517767 3837.757221 6726.507184 3747.494491 6625.495861 3657.194703 C 6524.464091 3566.930414 6322.43158 3476.629068 6189.172665 3431.482865 C 6055.893303 3386.372161 5991.407984 3386.3811 5974.221911 3420.733107 C 5957.050886 3455.141063 5987.123166 3523.907136 5991.425775 3511.020206 C 5995.728385 3498.133276 5974.22583 3403.572893 5903.288978 3334.760906 C 5832.367174 3266.004867 5712.011073 3222.997224 5602.364683 3171.408692 C 5492.753787 3119.84061 5393.873049 3059.65614 5357.372675 3059.666093 C 5320.780865 3059.670645 5346.589866 3119.83412 5331.547067 3100.482138 C 5316.504267 3081.130157 5260.609665 2982.262719 5183.246361 2885.541053 C 5105.883058 2788.819386 5006.99511 2694.25854 4908.10653 2545.940499 C 4809.253445 2397.642906 4710.343787 2195.603168 4579.254619 2027.929225 C 4448.145005 1860.290782 4284.79994 1727.033184 4093.467739 1641.052847 C 3902.191479 1555.057459 3682.963577 1516.359782 3644.28671 1527.124765 C 3605.574348 1537.869298 3747.433468 1598.040991 3897.901643 1610.928847 C 4048.349372 1623.852201 4207.391109 1589.435769 4411.613433 1638.919974 C 4615.785216 1688.327781 4865.122538 1821.580276 5056.408198 1894.673766 C 5247.7498 1967.752206 5381.004247 1980.651192 5471.252573 1954.872312 C 5561.521347 1929.057933 5608.819494 1864.586138 5600.210353 1785.066212 C 5591.621658 1705.510787 5527.140721 1610.96318 5436.850787 1578.706098 C 5346.596347 1546.469465 5230.512462 1576.558856 5200.448572 1645.333786 C 5170.328742 1714.123766 5226.228907 1821.599285 5318.664309 1875.328105 C 5411.079264 1929.092424 5540.049903 1929.074546 5595.919421 1864.576736 C 5651.824433 1800.099376 5634.628324 1671.142085 5518.54153 1567.948789 C 5402.49023 1464.775942 5187.527798 1387.402591 4981.187196 1305.729858 C 4774.846593 1224.057125 4577.092326 1138.064562 4368.621221 1030.626276 C 4160.114622 923.16754 3940.896585 794.171633 3786.120781 712.516058 C 3631.365425 630.824984 3541.072749 596.438744 3390.639522 656.617906 C 3240.1708 716.776618 3029.520632 871.571732 3053.164818 1009.113831 C 3076.788557 1146.69143 3334.742144 1267.036463 3609.877968 1374.539467 C 3884.998743 1481.986523 4177.322202 1576.55605 4392.259804 1748.521447 C 4607.197407 1920.486844 4744.769599 2169.812612 4890.910885 2339.586875 C 5037.067219 2509.417086 5191.848586 2599.680742 5329.421789 2698.563609 C 5466.959497 2797.426027 5587.344982 2904.892606 5789.378506 2967.205051 C 5991.427078 3029.573445 6275.144136 3046.752205 6410.549614 3089.731009 C 6545.990587 3132.730264 6533.084486 3201.509113 6528.755865 3205.823461 C 6524.483185 3210.12276 6528.772939 3149.901608 6612.593718 3119.852185 C 6696.434943 3089.767264 6859.777099 3089.742175 6988.752206 3121.971514 C 7117.706866 3154.236353 7212.27943 3218.699671 7253.128491 3296.085969 C 7293.942057 3373.451817 7281.067613 3463.761095 7210.141426 3489.561602 C 7139.200192 3515.306161 7010.237309 3476.653847 6849.021187 3470.197272 C 6687.805065 3463.740697 6494.386247 3489.55626 6513.740975 3478.769649 C 6533.054809 3468.054038 6765.213179 3420.777153 7044.638124 3414.301809 C 7324.042622 3407.861964 7650.74919 3442.24411 7955.993165 3414.333541 C 8261.186599 3386.346573 8544.896994 3296.102389 8783.49404 3270.312209 C 9022.091086 3244.522029 9215.518841 3283.200902 9299.352943 3345.543369 C 9383.187045 3407.885835 9357.412445 3493.835946 9353.098789 3493.856478 C 9348.805581 3493.841511 9365.993762 3407.861466 9475.64618 3390.661746 C 9585.242658 3373.477076 9787.267877 3425.052282 9948.481807 3478.78713 C 10109.695737 3532.521978 10230.098378 3588.416468 10258.025191 3635.710804 C 10285.916509 3682.98469 10221.479375 3721.648772 10245.089159 3713.077285 C 10268.810826 3704.4757 10380.508421 3648.597646 10550.293172 3652.899048 C 10720.077923 3657.20045 10948.00577 3721.666257 11051.103247 3777.566478 C 11154.292159 3833.472099 11132.803477 3880.711036 11132.825102 3861.386165 C 11132.811233 3842.040844 11154.292623 3756.075766 11283.299852 3732.439201 C 11412.215645 3708.797236 11648.713217 3747.468733 11842.124362 3764.673127 C 12035.591449 3781.862472 12185.992555 3777.549215 12213.991284 3670.091785 C 12241.898577 3562.628954 12147.29701 3351.960602 11999.014093 3139.204624 C 11850.716129 2926.392696 11648.721768 2711.437194 11526.195748 2537.349762 C 11403.578293 2363.25693 11360.688437 2229.992419 11291.877702 2159.048532 C 11223.102461 2088.125094 11128.497775 2079.52768 11111.290792 2191.311519 C 11094.104255 2303.059859 11154.294974 2535.224951 11210.214027 2743.70044 C 11266.077139 2952.190978 11317.704078 3137.012363 11371.41835 3268.14481 C 11425.097127 3399.256806 11480.975118 3476.649765 11566.99895 3493.825326 C 11653.002336 3511.036386 11769.004186 3468.039697 11874.400617 3480.96352 C 11979.72606 3493.846443 12074.192224 3562.598177 12052.783381 3547.568685 C 12031.283104 3532.533793 11893.709901 3433.650926 11801.294396 3330.479175 C 11708.914386 3227.327874 11661.621085 3119.84679 11612.115796 3023.100286 C 11562.681496 2926.394682 11511.09115 2840.40861 11483.1992 2739.377528 C 11455.195368 2638.376545 11450.910378 2522.295053 11433.69374 2389.023496 C 11416.512596 2255.772389 11386.399804 2105.331217 11431.597297 2002.156472 C 11476.703354 1898.976327 11597.09925 1843.098109 11708.922133 1883.931611 C 11820.59764 1924.774761 11923.79157 2062.335031 11934.478096 2174.114483 C 11945.311999 2285.884286 11863.603004 2371.85282 11773.305314 2378.26593 C 11683.114106 2384.740388 11584.207275 2311.633572 11534.790681 2212.76331 C 11485.318146 2113.908098 11485.300354 1989.268992 11528.299728 1916.174149 C 11571.299103 1843.079305 11657.295197 1821.564225 11764.685882 1877.479412 C 11872.18845 1933.364501 12001.197492 2066.64976 12164.487165 2249.329838 C 12327.903767 2432.035767 12525.580554 2664.172015 12654.613416 2853.308128 C 12783.590336 3042.459291 12843.68452 3188.614568 12981.289297 3304.678099 C 13118.894075 3420.74163 13333.806131 3506.738112 13574.503453 3723.850979 C 13815.312658 3940.933746 14081.815694 4289.127497 14387.011573 4471.819548 C 14692.207453 4654.5116 15036.096174 4671.701953 15287.594389 4622.282038 C 15539.113051 4572.826624 15698.185264 4456.775992 15577.795397 4443.865959 C 15457.385082 4430.991425 15057.604122 4521.262889 14799.715585 4719.00477 C 14541.827047 4916.746651 14425.683556 5221.968598 14505.195236 5473.444689 C 14584.798352 5724.926181 14859.909263 5922.671466 15137.191649 6028.007071 C 15414.403047 6133.301777 15693.877356 6146.192204 15915.310586 6189.186356 C 16136.596439 6232.190157 16300.009037 6305.252535 16196.771475 6288.088105 C 16093.701737 6270.878525 15724.002287 6163.406638 15371.503877 6139.742928 C 15018.893585 6116.109316 14683.611264 6176.309731 14425.702026 6116.129819 C 14167.813235 6055.914407 13987.200692 5875.404716 13729.279144 5694.844013 C 13471.413537 5514.268261 13136.106596 5333.707096 12663.185013 5127.38063 C 12190.298924 4921.074614 11579.895027 4688.917248 11246.706447 4544.894375 C 10913.609303 4400.876903 10857.691981 4344.973473 10705.070033 4299.87664 C 10552.488978 4254.708809 10303.111862 4220.342175 10088.220336 4138.659958 C 9873.272869 4056.99279 9692.719557 3928.004639 9432.607183 3816.249979 C 9172.550749 3704.480269 8832.9557 3609.908551 8680.335861 3513.18368 C 8527.716022 3416.45881 8562.106887 3317.601237 8660.974219 3281.044053 C 8759.877046 3244.507319 8923.235895 3270.306474 9067.21173 3341.248165 C 9211.243506 3412.174806 9335.912717 3528.208485 9559.435555 3597.039189 C 9782.963793 3665.778445 10105.401601 3687.299676 10212.886294 3614.195893 C 10320.2946 3541.14266 10212.897169 3373.454763 10163.412324 3154.218761 C 10113.98342 2934.96771 10122.594032 2664.194403 10195.693254 2444.948747 C 10268.792476 2225.70309 10406.30392 2058.035633 10488.008447 1939.819881 C 10569.712973 1821.604129 10595.483654 1752.814232 10649.215545 1754.978256 C 10702.911943 1757.121831 10784.589998 1830.183829 10791.117455 1976.35054 C 10797.517981 2122.491401 10728.711968 2341.752024 10655.600437 2440.61689 C 10582.615835 2539.507607 10505.178338 2518.012215 10515.875824 2515.854301 C 10526.70024 2513.722236 10625.497217 2530.881349 10664.200346 2664.192242 C 10702.888427 2797.447186 10681.396626 3046.757061 10651.294038 3190.778716 C 10621.211896 3334.764872 10582.610403 3373.468207 10569.684319 3364.886223 C 10556.814176 3356.28919 10569.675382 3300.391787 10617.009573 3285.347874 C 10664.196388 3270.313609 10745.876635 3296.097334 10827.622855 3362.721308 C 10909.313135 3429.360332 10990.977952 3536.834205 10975.887517 3528.234512 C 10960.888516 3519.64022 10849.098767 3394.951913 10786.786483 3201.515703 C 10724.418257 3008.094543 10711.476954 2745.849082 10702.901493 2509.427782 C 10694.310985 2272.950534 10690.009932 2062.347995 10679.3151 1939.831304 C 10668.493339 1817.288763 10651.292848 1782.888017 10685.707615 1744.231064 C 10720.107334 1705.518162 10806.086818 1662.528603 10874.908049 1696.931456 C 10943.693787 1731.31386 10995.173896 1843.098327 11020.997399 1976.364318 C 11046.785407 2109.60986 11046.804926 2264.367027 11053.27581 2356.791591 C 11059.690752 2449.231204 11072.613 2479.323167 11102.696958 2614.712834 C 11132.81641 2750.122951 11180.11262 2990.886722 11182.204424 3091.899 C 11184.387663 3192.916679 11141.381542 3154.238813 11167.18443 3156.386775 C 11192.987318 3158.534737 11287.599213 3201.508527 11382.099226 3244.512416 " stroke="#231f20" stroke-width="37.942001" stroke-opacity="1" stroke-miterlimit="22.926001"/></g></g></g></g></svg>