<svg xmlns="http://www.w3.org/2000/svg" xmlns:xlink="http://www.w3.org/1999/xlink" width="1728" zoomAndPan="magnify" viewBox="0 0 1296 1727.999927" height="2304" preserveAspectRatio="xMidYMid meet" version="1.0"><defs><clipPath id="ac1ea6fd57"><path d="M 0 567 L 1296 567 L 1296 1184 L 0 1184 Z M 0 567 " clip-rule="nonzero"/></clipPath><clipPath id="3554f4970c"><path d="M 227.648438 341.878906 L 1310.351562 965.582031 L 1068.132812 1386.058594 L -14.566406 762.351562 Z M 227.648438 341.878906 " clip-rule="nonzero"/></clipPath><clipPath id="894a2ba522"><path d="M 227.648438 341.878906 L 1310.351562 965.582031 L 1068.132812 1386.058594 L -14.566406 762.351562 Z M 227.648438 341.878906 " clip-rule="nonzero"/></clipPath><clipPath id="5e66cb1e0f"><path d="M 227.648438 341.878906 L 1310.351562 965.582031 L 1068.132812 1386.058594 L -14.566406 762.351562 Z M 227.648438 341.878906 " clip-rule="nonzero"/></clipPath></defs><g clip-path="url(#ac1ea6fd57)"><g clip-path="url(#3554f4970c)"><g clip-path="url(#894a2ba522)"><g clip-path="url(#5e66cb1e0f)"><path stroke-linecap="butt" transform="matrix(0.0666335, 0.038385, 0.0383962, -0.0666528, -14.713186, 762.467456)" fill="none" stroke-linejoin="miter" d="M 7.454124 20.389998 C 428.753813 179.442322 850.009486 338.469298 1239.073528 454.577223 C 1628.093554 570.659799 1984.928644 643.709969 2324.539726 667.399149 C 2664.132148 691.018977 2986.551273 665.189809 3106.882238 617.92066 C 3227.282576 570.632857 3145.576093 501.835722 2885.501205 540.536499 C 2625.426317 579.237276 2186.939006 725.410617 1763.519453 923.160921 C 1340.0999 1120.911225 931.704089 1370.213145 592.113238 1479.864039 C 252.503726 1589.445582 -18.344841 1559.35075 121.350272 1542.163021 C 261.089401 1525.000641 811.353551 1520.676012 1247.680034 1589.45543 C 1684.006516 1658.234847 2006.420687 1800.074307 2180.487169 1825.888811 C 2354.623023 1851.68466 2380.392528 1761.3862 2599.670538 1847.405032 C 2818.885871 1933.329163 3231.584354 2195.614589 3545.387495 2401.942993 C 3859.190635 2608.271397 4074.161109 2758.737479 4239.660371 2838.282672 C 4405.159634 2917.827864 4521.213041 2926.408163 4639.455978 2997.31675 C 4757.629543 3068.243991 4878.036654 3201.524869 4987.631273 3313.282747 C 5097.269907 3425.065974 5196.140066 3515.351551 5322.971365 3562.606452 C 5449.777308 3609.905356 5604.519037 3614.217589 5797.993478 3659.355257 C 5991.423903 3704.467577 6223.561685 3790.449337 6384.773189 3842.031664 C 6545.984692 3893.613991 6636.24456 3910.840889 6681.390144 3874.307504 C 6726.491711 3837.74877 6726.523011 3747.455102 6625.466419 3657.1997 C 6524.479199 3566.925642 6322.429444 3476.645846 6189.17045 3431.491253 C 6055.911457 3386.33666 5991.41787 3386.351274 5974.229419 3420.758594 C 5957.040967 3455.165913 5987.113635 3523.94059 5991.449419 3511.024194 C 5995.715831 3498.126452 5974.220003 3403.581642 5903.300248 3334.784303 C 5832.380493 3265.986964 5711.986099 3223.025103 5602.38975 3171.395882 C 5492.742689 3119.854668 5393.893673 3059.646094 5357.368741 3059.651091 C 5320.774436 3059.674742 5346.598944 3119.849305 5331.538495 3100.509796 C 5316.503403 3081.126283 5260.602015 2982.29805 5183.277439 2885.549365 C 5105.883491 2788.819334 5007.015644 2694.256858 4908.114722 2545.933723 C 4809.257816 2397.635937 4710.367836 2195.577493 4579.268554 2027.94961 C 4448.150613 1860.252376 4284.798013 1727.029707 4093.463302 1641.045261 C 3902.172607 1555.086164 3682.943816 1516.390639 3644.283367 1527.121406 C 3605.553545 1537.870828 3747.436082 1598.07189 3897.895049 1610.935611 C 4048.32866 1623.843336 4207.382718 1589.439069 4411.61622 1638.897437 C 4615.805705 1688.330456 4865.130618 1821.600761 5056.409586 1894.659806 C 5247.73257 1967.7442 5380.984254 1980.661338 5471.236608 1954.867178 C 5561.558334 1929.054362 5608.811359 1864.548903 5600.217213 1785.052873 C 5591.648423 1705.512839 5527.144431 1610.931537 5436.861313 1578.688139 C 5346.622212 1546.47009 5230.490597 1576.583252 5200.417189 1645.356198 C 5170.34378 1714.129144 5226.23385 1821.624532 5318.641134 1875.310262 C 5411.067078 1929.065344 5540.028896 1929.08012 5595.951587 1864.585975 C 5651.830261 1800.066483 5634.619096 1671.126076 5518.555283 1567.949861 C 5402.49147 1464.773646 5187.549653 1387.405625 4981.191781 1305.721322 C 4774.877925 1224.062367 4577.103997 1138.061781 4368.649626 1030.614242 C 4160.081866 923.16001 3940.884374 794.170817 3786.116301 712.483623 C 3631.348227 630.79643 3541.097603 596.461933 3390.648632 656.62692 C 3240.199662 716.791908 3029.545649 871.569736 3053.166052 1009.124086 C 3076.830471 1146.703784 3334.769307 1267.060003 3609.852987 1374.550761 C 3885.031395 1481.978861 4177.285275 1576.560154 4392.237498 1748.524091 C 4607.18972 1920.488028 4744.752253 2169.783912 4890.902567 2339.574352 C 5037.071542 2509.434144 5191.834993 2599.675138 5329.4052 2698.592699 C 5466.956746 2797.440909 5587.340403 2904.921683 5789.380538 2967.240924 C 5991.420673 3029.560165 6275.135946 3046.787225 6410.55119 3089.725843 C 6545.985094 3132.733814 6533.068257 3201.54135 6528.787807 3205.81594 C 6524.482001 3210.134533 6528.768566 3149.89483 6612.628031 3119.832978 C 6696.44348 3089.745778 6859.769153 3089.741728 6988.73828 3121.993959 C 7117.707408 3154.246189 7212.275974 3218.729352 7253.10539 3296.101627 C 7293.934807 3373.473903 7281.069092 3463.760639 7210.115726 3489.533867 C 7139.206377 3515.332445 7010.253394 3476.642862 6849.016911 3470.172693 C 6687.824444 3463.727873 6494.392493 3489.527814 6513.709937 3478.79263 C 6533.052738 3468.013443 6765.232966 3420.749829 7044.632813 3414.334927 C 7324.058015 3407.876021 7650.772209 3442.247173 7955.997884 3414.310969 C 8261.179543 3386.349417 8544.916699 3296.105857 8783.499233 3270.286886 C 9022.05641 3244.511918 9215.502979 3283.186886 9299.342668 3345.53515 C 9383.182356 3407.883415 9357.396502 3493.835623 9353.118363 3493.833312 C 9348.770852 3493.849656 9366.000428 3407.892828 9475.635182 3390.682232 C 9585.225918 3373.446288 9787.284509 3425.051278 9948.482179 3478.794056 C 10109.679848 3532.536835 10230.08597 3588.398748 10257.990455 3635.705743 C 10285.920296 3682.968735 10221.487246 3721.639501 10245.113012 3713.092428 C 10268.78949 3704.457348 10380.524784 3648.604431 10550.287362 3652.893421 C 10720.093956 3657.207759 10947.997207 3721.64535 11051.082656 3777.553985 C 11154.281493 3833.469315 11132.782614 3880.749027 11132.812388 3861.36762 C 11132.816805 3842.030217 11154.280504 3756.05035 11283.318423 3732.432168 C 11412.198937 3708.781944 11648.723044 3747.47475 11842.118492 3764.670518 C 12035.583313 3781.847632 12186.007508 3777.578405 12213.998047 3670.098169 C 12241.875196 3562.611238 12147.293333 3351.957301 11998.993088 3139.201326 C 11850.718198 2926.401346 11648.706266 2711.429976 11526.204763 2537.32536 C 11403.589871 2363.214049 11360.712184 2229.982881 11291.897968 2159.057574 C 11223.083752 2088.132268 11128.490411 2079.544866 11111.284289 2191.301798 C 11094.078167 2303.05873 11154.30328 2535.185345 11210.212968 2743.669997 C 11266.097299 2952.198653 11317.691559 3137.041343 11371.413823 3268.137204 C 11425.110731 3399.277069 11481.005014 3476.651451 11567.012099 3493.832034 C 11653.019184 3511.012618 11769.000327 3468.036714 11874.422101 3480.92616 C 11979.70513 3493.852915 12074.202013 3562.631633 12052.813425 3547.559577 C 12031.286093 3532.524831 11893.690531 3433.651273 11801.317234 3330.46313 C 11708.918581 3227.318991 11661.584788 3119.828223 11612.090123 3023.10723 C 11562.708846 2926.392931 11511.12268 2840.423057 11483.203781 2739.424755 C 11455.196849 2638.375756 11450.901199 2522.323678 11433.717701 2389.062368 C 11416.490187 2255.77571 11386.418841 2105.305169 11431.607655 2002.161772 C 11476.708438 1898.967677 11597.069381 1843.100725 11708.895975 1883.941517 C 11820.609181 1924.775616 11923.788037 2062.317457 11934.525214 2174.108775 C 11945.287747 2285.85609 11863.6086 2371.852881 11773.316647 2378.28429 C 11683.068711 2384.741047 11584.207968 2311.632422 11534.771152 2212.776326 C 11485.290321 2113.894881 11485.302788 1989.247311 11528.282296 1916.185741 C 11571.28716 1843.080169 11657.303081 1821.585946 11764.692025 1877.452889 C 11872.213017 1933.395877 12001.201762 2066.637372 12164.476358 2249.337106 C 12327.933715 2432.024878 12525.607552 2664.189544 12654.596877 2853.282797 C 12783.604863 3042.445402 12843.694864 3188.636561 12981.299842 3304.687071 C 13118.879465 3420.781584 13333.791303 3506.747408 13574.500767 3723.84406 C 13815.279604 3940.922056 14081.812049 4289.105532 14386.996268 4471.833667 C 14692.205843 4654.517798 15036.092548 4671.702585 15287.629615 4622.282936 C 15539.122665 4572.837938 15698.222061 4456.763155 15577.779437 4443.896952 C 15457.406186 4431.012094 15057.611 4521.229153 14799.678198 4718.989237 C 14541.814767 4916.730666 14425.725688 5221.964422 14505.220016 5473.45151 C 14584.783717 5724.919945 14859.905469 5922.685716 15137.189416 6027.985848 C 15414.403991 6133.304635 15693.868792 6146.208482 15915.300366 6189.220085 C 16136.574535 6232.199645 16299.998237 6305.275002 16196.809224 6288.103831 C 16093.71494 6270.870002 15724.007941 6163.389645 15371.51173 6139.781541 C 15018.883471 6116.09739 14683.623406 6176.317534 14425.726856 6116.115321 C 14167.760934 6055.931763 13987.177189 5875.3952 13729.290796 5694.822316 C 13471.379047 5514.293436 13136.095278 5333.746889 12663.200587 5127.399497 C 12190.305897 4921.052105 11579.913673 4688.910562 11246.682592 4544.885505 C 10913.608915 4400.892492 10857.696381 4345.015965 10705.094383 4299.856956 C 10552.467029 4254.74195 10303.080839 4220.363116 10088.192045 4138.630188 C 9873.252539 4056.985267 9692.715701 3928.048911 9432.611166 3816.232662 C 9172.525291 3704.485765 8832.959751 3609.909672 8680.354862 3513.175805 C 8527.724616 3416.485941 8562.124392 3317.619648 8661.002191 3281.02785 C 8759.854635 3244.480055 8923.203762 3270.276109 9067.203564 3341.249255 C 9211.228722 3412.178398 9335.929912 3528.240632 9559.457985 3597.01547 C 9782.986057 3665.790309 10105.410385 3687.259098 10212.88348 3614.182915 C 10320.287203 3541.125387 10212.903793 3373.441574 10163.407762 3154.233461 C 10114.006459 2934.962691 10122.605922 2664.174315 10195.701865 2444.946184 C 10268.823164 2225.67405 10406.276841 2058.043472 10487.992694 1939.834575 C 10569.708548 1821.625678 10595.529173 1752.806418 10649.196843 1754.996464 C 10702.915226 1757.098502 10784.594041 1830.216541 10791.097267 1976.315448 C 10797.505764 2122.477013 10728.706621 2341.776807 10655.620834 2440.634267 C 10582.604421 2539.473073 10505.18128 2517.976206 10515.887112 2515.878209 C 10526.687673 2513.717553 10625.485159 2530.879719 10664.216755 2664.184624 C 10702.904336 2797.464179 10681.419334 3046.766423 10651.316733 3190.772534 C 10621.214132 3334.778644 10582.632676 3373.451311 10569.689493 3364.883886 C 10556.771666 3356.272458 10569.70023 3300.364973 10616.98864 3285.343272 C 10664.233034 3270.296223 10745.906646 3296.116303 10827.582946 3362.727638 C 10909.303262 3429.364321 10991.000909 3536.836262 10975.896649 3528.255007 C 10960.887117 3519.611095 10849.119694 3394.939335 10786.8127 3201.524395 C 10724.417674 3008.058757 10711.483077 2745.849939 10702.919446 2509.424879 C 10694.311798 2272.974471 10690.005743 2062.326477 10679.287022 1939.820908 C 10668.524284 1817.289989 10651.304865 1782.876147 10685.721571 1744.207864 C 10720.094261 1705.514231 10806.059061 1662.540809 10874.893634 1696.907757 C 10943.702852 1731.318709 10995.199084 1843.081993 11021.008232 1976.329268 C 11046.792023 2109.620547 11046.800699 2264.345121 11053.30817 2356.822075 C 11059.683594 2449.222982 11072.608525 2479.288261 11102.725994 2614.723648 C 11132.799447 2750.133686 11180.090794 2990.869827 11182.202116 3091.891575 C 11184.382811 3192.894669 11141.402142 3154.252723 11167.195885 3156.389727 C 11192.989629 3158.526732 11287.620462 3201.537389 11382.09389 3244.516003 " stroke="#231f20" stroke-width="37.942001" stroke-opacity="1" stroke-miterlimit="22.926001"/></g></g></g></g></svg>