<svg xmlns="http://www.w3.org/2000/svg" xmlns:xlink="http://www.w3.org/1999/xlink" width="500" zoomAndPan="magnify" viewBox="0 0 375 374.999991" height="500" preserveAspectRatio="xMidYMid meet" version="1.0"><defs><clipPath id="6e795c4820"><path d="M 115.859375 70.125 L 230 70.125 L 230 292.070312 L 115.859375 292.070312 Z M 115.859375 70.125 " clip-rule="nonzero"/></clipPath><clipPath id="f451061752"><path d="M 165 70.125 L 291.359375 70.125 L 291.359375 292.070312 L 165 292.070312 Z M 165 70.125 " clip-rule="nonzero"/></clipPath><clipPath id="8cb664f621"><path d="M 193 102 L 291.359375 102 L 291.359375 220 L 193 220 Z M 193 102 " clip-rule="nonzero"/></clipPath></defs><g clip-path="url(#6e795c4820)"><path stroke-linecap="butt" transform="matrix(0.013168, 0, 0, -0.0131679, 116.862851, 291.648818)" fill="none" stroke-linejoin="miter" d="M 4106.829715 14130.378924 C 4269.392904 14056.216316 4431.659445 13982.350359 4555.361726 13916.790613 C 4679.360654 13851.230868 4764.795323 13794.273985 4825.904843 13703.202303 C 4887.014363 13612.13062 4924.095382 13486.944138 5016.649607 13404.178668 C 5109.203831 13321.709848 5257.23126 13281.66204 5420.981042 13263.269713 C 5584.730824 13244.580736 5764.202957 13247.54724 5876.632608 13203.346326 C 5989.062259 13159.145412 6034.746075 13068.073729 6019.023723 12975.518795 C 6003.30137 12882.96386 5926.469498 12789.222324 5908.077313 12713.576464 C 5889.388479 12638.227254 5929.43598 12581.270372 6000.631537 12556.945036 C 6071.530446 12532.916351 6174.170708 12541.519214 6232.610394 12486.045583 C 6291.050081 12430.275302 6305.289192 12310.725178 6283.930525 12232.409464 C 6262.571858 12154.093751 6205.615412 12117.309097 6216.888042 12124.428707 C 6228.160672 12131.548318 6307.959026 12182.572192 6377.671342 12179.902338 C 6447.680307 12176.935834 6507.306586 12119.978951 6531.631735 12047.299595 C 6555.660235 11974.91689 6544.387605 11886.515062 6598.377569 11809.6826 C 6652.664182 11732.553488 6772.213388 11667.290393 6834.806149 11564.649344 C 6897.39891 11462.304945 6903.035225 11322.582592 6625.372552 11156.1617 C 6348.006527 10989.740808 5787.044865 10796.028076 5440.856468 10646.516259 C 5094.96472 10497.004441 4964.142883 10391.693538 4768.948397 10384.573928 C 4574.050559 10377.454318 4314.780072 10468.526 4121.365475 10945.539894 C 3927.65423 11422.553787 3799.502227 12285.213241 3684.106094 12737.901799 C 3568.709962 13190.590358 3466.366349 13233.30802 3443.524441 13074.006738 C 3420.682533 12914.408806 3477.638978 12552.79193 3654.144631 12205.414275 C 3830.650283 11858.03662 4127.00179 11524.898186 4319.229794 11076.362734 C 4511.457799 10627.827282 4599.562301 10064.191462 4585.323189 9417.790172 C 4571.084078 8771.388883 4454.501353 8042.518773 4680.843895 7387.514621 C 4907.186438 6732.807119 5476.454247 6151.965574 5561.888916 5365.841931 C 5647.323584 4580.014939 5248.925112 3589.202498 5146.284851 2734.849256 C 5043.644589 1880.792665 5237.355834 1163.195271 5510.865433 878.410857 C 5784.078384 593.626443 6137.089688 741.655008 6137.089688 838.659699 C 6137.089688 935.36774 5784.078384 980.755256 5447.976024 1066.19058 C 5112.170313 1151.625904 4793.273546 1277.109037 4759.159008 1823.835782 C 4724.747822 2370.562527 4975.415513 3338.532884 4861.502622 4061.766635 C 4747.58973 4785.000387 4269.392904 5263.497533 3984.610675 5849.975435 C 3699.828447 6436.453338 3608.757463 7131.208648 3682.622854 7752.098001 C 3756.784892 8372.690703 3995.883305 8919.417448 3938.926859 9414.823668 C 3881.970414 9910.526539 3528.959109 10354.612234 3244.17688 10405.932759 C 2959.394652 10456.956633 2743.138147 10115.511987 2805.730907 9631.378483 C 2868.323668 9147.244979 3210.062343 8521.015919 3568.709962 7934.241365 C 3927.65423 7347.763463 4303.507442 6801.036718 4263.756589 6151.965574 C 4223.709088 5502.59778 3768.057522 4750.885587 3585.915555 3999.173394 C 3403.773588 3247.461202 3494.844571 2495.749009 3745.215614 2114.256554 C 3995.883305 1732.764099 4405.851056 1721.194733 4559.811448 1897.701739 C 4713.475192 2074.208746 4610.834931 2438.792126 4457.171186 2399.040968 C 4303.507442 2358.99316 4098.523567 1914.907464 3733.942984 1806.630057 C 3369.362402 1698.352649 2845.48176 1926.180181 2771.616369 2381.835243 C 2697.454331 2837.490305 3073.307543 3520.676249 3050.465635 4067.402994 C 3027.920375 4614.129738 2606.383347 5024.397285 2572.268809 5422.798814 C 2538.154271 5821.496994 2891.165576 6208.922457 2987.872874 5986.731284 C 3084.876821 5764.540111 2925.280114 4933.028952 2572.268809 4272.388442 C 2219.257505 3612.044582 1672.534955 3122.27472 1632.487454 2586.820691 C 1592.736601 2051.663313 2059.660797 1470.821769 2076.86639 1009.233697 C 2093.775335 548.238927 1660.965677 206.49763 1342.06891 200.861272 C 1023.172144 194.928264 818.188268 525.396844 749.959193 496.918403 C 681.433469 468.439961 749.959193 81.014498 989.057606 35.626982 C 1228.156019 -10.057184 1638.420417 286.296596 1592.736601 690.631134 C 1547.052785 1094.669022 1046.014052 1607.280967 1085.764904 2205.328236 C 1125.812405 2803.375506 1706.649493 3486.561449 1763.605939 4095.881435 C 1820.562384 4705.201421 1353.638188 5240.655449 1455.981802 5747.334386 C 1558.622063 6254.309973 2230.530135 6732.807119 2344.443026 7216.643972 C 2458.355918 7700.777476 2014.27363 8190.547338 1883.155145 8594.881876 C 1752.333309 8999.216414 1934.475276 9318.115627 2105.344613 9204.201862 C 2276.21395 9090.288096 2435.51401 8543.561351 2122.253558 7939.877724 C 1808.993106 7336.490746 1023.172144 6675.850236 806.915639 6077.802966 C 590.362485 5479.755697 943.37379 4944.598319 960.579383 4471.737531 C 977.784976 3999.173394 658.888209 3589.202498 516.497095 3167.662236 C 374.10598 2746.418623 408.220518 2313.605644 510.564132 1949.022264 C 613.204393 1584.438884 784.073731 1288.381753 709.911692 1129.080472 C 636.046301 969.48254 317.149535 946.640456 174.75842 1089.032663 C 32.367306 1231.42487 66.481844 1539.051368 72.118159 1539.051368 C 77.754473 1539.051368 55.209214 1231.42487 242.987496 1117.511105 C 431.062426 1003.597339 829.757547 1083.396305 932.10116 1368.180719 C 1034.741422 1652.965133 841.030176 2142.734995 579.089855 2569.911616 C 317.149535 2996.791587 -13.31651 3361.374967 32.367306 3742.867422 C 77.754473 4124.359876 499.291502 4523.058056 470.813279 5041.30636 C 442.335056 5559.554663 -35.86177 6197.35309 66.481844 6669.917227 C 169.122105 7142.778015 852.302806 7450.107862 1211.247074 7837.533325 C 1569.894693 8224.662138 1604.009231 8691.589917 1808.993106 9392.278235 C 2014.27363 10092.669904 2390.126842 11026.525461 2891.165576 12074.294785 C 3392.20431 13122.360758 4018.725213 14284.043847 4536.96954 15052.665115 C 5055.213867 15821.583033 5465.181617 16197.439129 5732.758253 16197.439129 C 6000.631537 16197.439129 6125.817058 15821.583033 6131.453373 15320.540454 C 6137.089688 14819.201225 6023.176797 14192.972165 5923.206369 13826.015581 C 5823.23594 13459.058998 5736.911327 13351.671542 5799.504088 13693.412839 C 5862.096849 14035.154135 6073.606983 14826.024185 6025.84663 15392.033208 C 5977.789629 15958.338881 5670.165492 16300.080178 5094.96472 15901.381999 C 4519.763947 15502.683819 3676.986539 14363.842813 3039.193005 13241.910882 C 2401.399472 12119.978951 1968.589814 11015.252745 1666.89864 10046.985737 C 1364.910818 9079.01538 1194.041481 8247.504221 1205.610759 8093.839298 C 1216.883389 7939.877724 1410.594634 8464.059036 1484.460025 8868.393574 C 1558.622063 9272.431461 1512.938248 9557.215875 1279.47615 9819.158206 C 1046.014052 10081.397187 624.477023 10320.497435 351.264072 10701.989889 C 77.754473 11083.482344 -47.431048 11607.367006 169.122105 12347.806482 C 385.37861 13088.245959 943.37379 14044.9436 1393.389041 14506.23502 C 1843.404292 14967.526441 2184.846319 14933.114991 2543.790586 14819.201225 C 2902.438206 14705.28746 3278.291418 14511.871379 3654.144631 14318.158647 " stroke="#3b160a" stroke-width="52.318001" stroke-opacity="1" stroke-miterlimit="22.926001"/></g><g clip-path="url(#f451061752)"><path stroke-linecap="butt" transform="matrix(0.013573, 0, 0, -0.0135729, 116.862851, 291.648818)" fill="none" stroke-linejoin="miter" d="M 6427.935273 10823.509685 C 6096.970906 10508.947214 5765.718745 10194.384743 5611.46057 9849.315756 C 5456.914601 9504.246769 5479.074824 9128.671266 5401.657941 8669.922338 C 5324.241059 8211.461207 5147.534867 7670.114447 5318.772952 7178.268827 C 5490.011038 6686.711004 6009.481196 6244.65432 6141.866942 5686.615317 C 6274.540484 5128.576313 6020.417409 4454.554989 6197.123602 3896.515985 C 6374.117589 3338.476981 6981.653048 2896.420297 7302.256791 2382.702081 C 7622.572739 1868.696067 7655.956971 1283.02852 7556.379866 1028.903487 C 7456.802761 774.778453 7224.839909 852.195932 7418.238217 1139.417657 C 7611.636525 1426.92718 8230.395994 1923.953152 8164.20312 2382.702081 C 8097.722452 2841.163212 7346.289442 3261.059502 7097.922269 3874.355591 C 6849.267302 4487.651681 7103.390376 5294.347569 6959.780621 5896.419563 C 6815.88307 6498.779354 6274.540484 6896.515251 5960.556028 7424.047739 C 5646.571573 7951.868024 5559.945247 8609.197103 5587.573577 8598.260805 C 5615.201907 8587.324507 5757.084892 7907.547237 6275.403869 7230.647939 C 6794.010642 6554.03644 7689.053408 5880.015116 7931.952473 5266.719026 C 8175.139334 4653.422937 7766.182495 4100.852082 7815.971047 3697.648037 C 7865.7596 3294.156194 8374.005749 3040.03116 8473.582854 2774.969828 C 8572.872164 2509.620699 8263.49243 2233.335272 8064.626015 2194.770431 C 7865.7596 2156.20559 7777.406504 2355.073538 7926.484366 2426.735071 C 8075.850024 2498.684401 8462.358845 2443.427315 8694.609492 2614.666721 C 8926.572344 2785.906126 9003.989226 3183.642023 8888.0078 3476.619695 C 8771.738579 3769.309569 8462.358845 3957.24122 8412.858088 4393.829754 C 8363.069535 4830.130492 8572.872164 5515.375911 8385.229758 6001.465585 C 8197.299557 6487.555259 7611.636525 6775.064782 7340.821335 7216.833668 C 7070.29394 7658.890352 7114.32659 8255.781994 6901.64601 8760.578494 C 6688.96543 9265.662791 6219.57162 9678.939742 5961.707209 9844.998796 C 5703.842798 10011.345647 5657.507787 9930.186803 5721.110504 9640.662699 C 5784.425426 9351.426392 5957.678077 8853.249231 6187.914159 8576.388209 C 6418.15024 8299.814984 6705.369751 8244.557898 7097.922269 8244.557898 C 7490.186993 8244.557898 7987.209133 8299.814984 8423.794302 8427.021399 C 8860.379471 8553.940018 9235.952078 8752.807966 9556.268026 8791.660604 C 9876.871769 8830.225445 10142.218852 8708.774976 10191.71961 8592.792656 C 10241.508162 8476.522539 10075.738184 8366.008368 9899.031992 8719.711274 C 9722.038004 9073.414181 9534.395598 9891.046367 9230.483971 10658.889618 C 8926.572344 11427.020665 8506.679291 12145.074979 8142.042897 12537.630524 C 7777.406504 12929.898271 7468.02677 12996.091655 7269.160355 13134.234369 C 7070.29394 13272.377082 6981.653048 13482.181329 6849.267302 13625.792192 C 6716.59376 13769.690852 6539.887568 13846.820533 6382.175852 14042.234914 C 6224.751932 14237.361497 6086.610283 14550.484981 6000.559547 14718.558616 C 5914.508812 14886.632251 5880.261195 14909.943834 5853.784046 14969.805677 C 5827.594692 15029.955317 5809.175805 15126.943014 5884.290326 15174.429572 C 5959.404848 15221.628332 6128.052777 15219.325953 6284.037722 15085.787997 C 6440.310462 14951.962243 6583.920218 14686.613114 6794.010642 14493.213315 C 7003.813271 14300.101313 7280.096569 14178.363046 7368.449665 14062.380726 C 7456.802761 13946.398406 7357.513451 13835.884235 7230.308016 13984.963247 C 7103.390376 14134.330056 6948.556612 14543.002251 6794.010642 14841.448072 C 6639.176878 15139.893893 6484.630908 15327.537746 6279.145206 15454.744161 C 6073.947298 15581.66278 5817.809658 15648.143961 5689.740838 15681.240652 C 5561.959813 15714.337344 5561.959813 15714.337344 5601.387742 15786.286674 C 5641.103466 15857.948207 5720.247119 16001.846867 5837.09193 16051.348006 C 5954.224536 16101.136943 6108.770506 16056.816155 6269.072377 16023.719463 C 6429.374249 15990.622772 6595.144227 15968.462378 6749.690197 15863.416356 C 6904.523961 15758.370334 7048.133717 15570.726481 7031.441601 15609.291322 C 7015.03728 15648.143961 6838.043293 15913.205292 6683.497323 16062.284304 C 6528.663559 16211.651113 6395.990017 16244.747805 6434.842356 16266.908199 C 6473.406899 16288.780795 6683.497323 16300.004891 6849.267302 16228.055561 C 7015.03728 16156.394028 7136.486813 16001.846867 7318.661112 15780.818525 C 7501.123206 15559.790183 7744.310067 15272.28066 7943.176482 14957.430392 C 8142.042897 14642.580124 8296.588867 14300.101313 8374.005749 14040.220333 C 8451.422631 13780.62715 8451.422631 13603.919595 8595.032387 13426.924243 C 8738.642143 13250.216689 9025.861654 13073.509134 9501.299162 12510.001981 C 9976.161079 11946.207031 10639.240993 10995.90028 11081.294268 10283.314115 C 11523.347544 9570.72795 11744.374182 9095.574574 11865.823715 8758.563912 C 11987.273248 8421.265453 12009.433471 8222.397505 11893.452045 8123.107429 C 11777.470619 8023.529557 11523.347544 8023.529557 11203.031596 7846.822002 C 10882.427853 7670.114447 10495.631237 7316.411541 9974.146513 7042.716289 C 9452.661789 6768.733241 8796.488958 6574.757847 8140.603922 6381.07025 " stroke="#3b160a" stroke-width="50.757999" stroke-opacity="1" stroke-miterlimit="22.926001"/></g><g clip-path="url(#8cb664f621)"><path fill="#dfb15b" d="M 233.003906 102.832031 C 232.382812 102.832031 231.765625 102.84375 231.148438 102.863281 C 231.976562 104.65625 232.929688 106.429688 234.097656 108.210938 C 237.066406 112.742188 241.445312 117.296875 247.207031 124.613281 C 252.972656 131.929688 260.121094 142 265.625 150.96875 C 271.125 159.933594 274.984375 167.796875 276.820312 172.683594 C 278.65625 177.570312 278.476562 179.480469 275.65625 181.320312 C 272.835938 183.15625 267.378906 184.917969 262.0625 187.8125 C 256.746094 190.707031 251.566406 194.730469 245.804688 197.792969 C 240.042969 200.851562 233.695312 202.945312 231.464844 206.402344 C 229.316406 209.734375 230.992188 214.332031 231.449219 219.46875 C 231.964844 219.484375 232.484375 219.492188 233.003906 219.492188 C 265.21875 219.492188 291.332031 193.375 291.332031 161.160156 C 291.332031 128.945312 265.21875 102.832031 233.003906 102.832031 Z M 208.574219 108.183594 C 202.984375 110.765625 197.871094 114.203125 193.40625 118.335938 C 194.085938 118.628906 194.570312 119.101562 194.851562 119.753906 C 195.441406 121.132812 195.136719 123.328125 195.664062 124.710938 C 196.195312 126.089844 197.566406 126.664062 198.214844 127.742188 C 198.863281 128.820312 198.796875 130.410156 199.328125 131.171875 C 199.859375 131.9375 200.988281 131.882812 202.09375 132.832031 C 203.199219 133.785156 204.277344 135.746094 205.144531 137.269531 C 206.015625 138.792969 206.671875 139.875 205.691406 141.429688 C 204.710938 142.980469 202.09375 144.996094 199.945312 147.695312 C 197.796875 150.398438 196.121094 153.78125 197.292969 156.386719 C 198.464844 158.984375 202.488281 160.804688 205.226562 164.554688 C 207.964844 168.308594 209.417969 173.996094 211.738281 176.785156 C 214.058594 179.570312 217.25 179.453125 221.910156 178.605469 C 226.570312 177.757812 232.699219 176.171875 237.601562 174.621094 C 242.507812 173.070312 246.1875 171.550781 248.089844 170.957031 C 249.992188 170.367188 250.117188 170.703125 248.238281 165.515625 C 246.359375 160.332031 242.472656 149.628906 238.871094 141.601562 C 235.265625 133.578125 231.945312 128.234375 228.097656 123.980469 C 224.253906 119.722656 219.890625 116.550781 215.273438 113.207031 C 213.011719 111.570312 210.691406 109.890625 208.574219 108.183594 " fill-opacity="1" fill-rule="evenodd"/></g></svg>