<svg xmlns="http://www.w3.org/2000/svg" xmlns:xlink="http://www.w3.org/1999/xlink" width="500" zoomAndPan="magnify" viewBox="0 0 375 374.999991" height="500" preserveAspectRatio="xMidYMid meet" version="1.0"><defs><g/></defs><g fill="#d6a859" fill-opacity="1"><g transform="translate(71.0656, 176.999988)"><g><path d="M 27.183594 -62.824219 L 27.183594 -61.21875 C 25.6875 -61.21875 21.941406 -58.757812 21.941406 -52.871094 L 21.941406 -11.34375 C 22.046875 -4.066406 26.648438 -2.996094 29.324219 -2.996094 L 33.179688 -2.996094 C 45.058594 -2.996094 52.441406 -18.300781 52.441406 -18.300781 L 53.726562 -17.550781 L 50.730469 0 L 0 0 L 0 -1.5 C 0 -1.5 5.136719 -2.460938 5.136719 -9.3125 L 5.136719 -53.511719 C 5.136719 -60.574219 0 -61.324219 0 -61.324219 L 0 -62.824219 Z M 27.183594 -62.824219 "/></g></g></g><g fill="#d6a859" fill-opacity="1"><g transform="translate(129.92446, 176.999988)"><g><path d="M 24.1875 -47.839844 C 37.457031 -47.839844 48.375 -37.136719 48.375 -23.867188 C 48.375 -10.703125 37.457031 0 24.1875 0 C 10.808594 0 0 -10.703125 0 -23.867188 C 0 -37.136719 10.808594 -47.839844 24.1875 -47.839844 Z M 24.1875 -45.484375 C 18.085938 -45.484375 16.269531 -35.960938 16.269531 -24.292969 C 16.269531 -12.523438 18.085938 -2.996094 24.1875 -2.996094 C 30.289062 -2.996094 32.535156 -12.523438 32.535156 -24.292969 C 32.535156 -35.960938 30.289062 -45.484375 24.1875 -45.484375 Z M 24.1875 -45.484375 "/></g></g></g><g fill="#d6a859" fill-opacity="1"><g transform="translate(182.683425, 176.999988)"><g><path d="M 53.621094 -8.347656 C 51.90625 -5.78125 46.34375 0 35.210938 0 C 13.164062 0 0 -14.128906 0 -31.464844 C 0 -48.910156 13.058594 -62.929688 34.035156 -62.929688 C 43.878906 -62.929688 51.585938 -59.398438 56.296875 -54.261719 C 52.871094 -49.015625 48.589844 -45.058594 41.097656 -46.449219 C 44.523438 -49.339844 44.09375 -59.933594 34.035156 -59.933594 C 24.082031 -59.933594 16.910156 -47.410156 16.910156 -32 C 16.910156 -16.480469 25.578125 -3.960938 35.210938 -3.960938 C 44.949219 -3.960938 48.269531 -11.558594 49.765625 -14.984375 Z M 53.621094 -8.347656 "/></g></g></g><g fill="#d6a859" fill-opacity="1"><g transform="translate(243.361552, 176.999988)"><g><path d="M 24.1875 -47.839844 C 37.457031 -47.839844 48.375 -37.136719 48.375 -23.867188 C 48.375 -10.703125 37.457031 0 24.1875 0 C 10.808594 0 0 -10.703125 0 -23.867188 C 0 -37.136719 10.808594 -47.839844 24.1875 -47.839844 Z M 24.1875 -45.484375 C 18.085938 -45.484375 16.269531 -35.960938 16.269531 -24.292969 C 16.269531 -12.523438 18.085938 -2.996094 24.1875 -2.996094 C 30.289062 -2.996094 32.535156 -12.523438 32.535156 -24.292969 C 32.535156 -35.960938 30.289062 -45.484375 24.1875 -45.484375 Z M 24.1875 -45.484375 "/></g></g></g><g fill="#d6a859" fill-opacity="1"><g transform="translate(296.120517, 176.999988)"><g><path d="M 3.105469 -6.207031 C 4.816406 -6.207031 6.207031 -4.816406 6.207031 -3.105469 C 6.207031 -1.390625 4.816406 0 3.105469 0 C 1.390625 0 0 -1.390625 0 -3.105469 C 0 -4.816406 1.390625 -6.207031 3.105469 -6.207031 Z M 3.105469 -6.207031 "/></g></g></g><g fill="#d6a859" fill-opacity="1"><g transform="translate(53.510914, 251.249984)"><g><path d="M 53.621094 -8.347656 C 51.90625 -5.78125 46.34375 0 35.210938 0 C 13.164062 0 0 -14.128906 0 -31.464844 C 0 -48.910156 13.058594 -62.929688 34.035156 -62.929688 C 43.878906 -62.929688 51.585938 -59.398438 56.296875 -54.261719 C 52.871094 -49.015625 48.589844 -45.058594 41.097656 -46.449219 C 44.523438 -49.339844 44.09375 -59.933594 34.035156 -59.933594 C 24.082031 -59.933594 16.910156 -47.410156 16.910156 -32 C 16.910156 -16.480469 25.578125 -3.960938 35.210938 -3.960938 C 44.949219 -3.960938 48.269531 -11.558594 49.765625 -14.984375 Z M 53.621094 -8.347656 "/></g></g></g><g fill="#d6a859" fill-opacity="1"><g transform="translate(114.189041, 251.249984)"><g><path d="M 24.1875 -47.839844 C 37.457031 -47.839844 48.375 -37.136719 48.375 -23.867188 C 48.375 -10.703125 37.457031 0 24.1875 0 C 10.808594 0 0 -10.703125 0 -23.867188 C 0 -37.136719 10.808594 -47.839844 24.1875 -47.839844 Z M 24.1875 -45.484375 C 18.085938 -45.484375 16.269531 -35.960938 16.269531 -24.292969 C 16.269531 -12.523438 18.085938 -2.996094 24.1875 -2.996094 C 30.289062 -2.996094 32.535156 -12.523438 32.535156 -24.292969 C 32.535156 -35.960938 30.289062 -45.484375 24.1875 -45.484375 Z M 24.1875 -45.484375 "/></g></g></g><g fill="#d6a859" fill-opacity="1"><g transform="translate(166.948006, 251.249984)"><g><path d="M 32.320312 -43.878906 L 32.320312 -50.515625 C 32.320312 -58.113281 27.183594 -58.863281 27.183594 -58.863281 L 27.183594 -60.363281 L 49.125 -62.824219 C 49.125 -62.824219 49.015625 -56.296875 49.015625 -49.445312 L 49.015625 -9.3125 C 49.015625 -2.246094 54.15625 -1.5 54.15625 -1.5 L 54.15625 0 L 24.507812 0 C 4.28125 0 0 -12.308594 0 -23.546875 C 0 -42.597656 17.339844 -54.691406 32.320312 -43.878906 Z M 32.320312 -40.992188 C 20.335938 -47.304688 17.015625 -36.496094 17.015625 -23.757812 C 17.015625 -14.769531 18.835938 -2.675781 27.078125 -2.675781 C 28.898438 -2.675781 32.429688 -2.675781 32.320312 -10.382812 Z M 32.320312 -40.992188 "/></g></g></g><g fill="#d6a859" fill-opacity="1"><g transform="translate(226.234932, 251.249984)"><g><path d="M 34.355469 -23.652344 C 27.613281 -23.652344 17.015625 -23.972656 17.015625 -23.972656 C 17.015625 -9.203125 21.511719 -2.890625 28.363281 -2.996094 C 37.671875 -2.996094 40.027344 -9.203125 41.203125 -11.878906 L 44.09375 -6.847656 C 42.808594 -4.921875 40.027344 0 28.253906 0 C 11.664062 0 0 -7.0625 0 -23.652344 C 0 -37.566406 9.953125 -48.269531 25.792969 -48.269531 C 42.703125 -48.269531 48.589844 -34.246094 46.664062 -26.757812 C 44.308594 -24.292969 39.171875 -23.652344 34.355469 -23.652344 Z M 25.6875 -45.058594 C 19.265625 -45.058594 17.125 -37.78125 17.125 -27.71875 L 29.21875 -27.71875 C 35.746094 -27.71875 34.675781 -45.058594 25.6875 -45.058594 Z M 25.6875 -45.058594 "/></g></g></g><g fill="#d6a859" fill-opacity="1"><g transform="translate(277.602696, 251.249984)"><g><path d="M 21.191406 -47.945312 C 30.074219 -47.945312 36.066406 -45.058594 39.8125 -41.097656 C 37.136719 -37.136719 33.820312 -34.140625 27.933594 -35.210938 C 30.609375 -37.351562 28.148438 -45.914062 21.191406 -45.914062 C 15.410156 -45.914062 12.628906 -42.0625 12.628906 -38.527344 C 12.628906 -27.933594 41.527344 -31.574219 41.527344 -13.59375 C 41.527344 -4.28125 35.210938 0.105469 18.945312 0.105469 C 13.804688 0.105469 3.746094 -1.710938 0 -6.316406 C 2.996094 -9.953125 3.960938 -15.519531 8.667969 -17.980469 C 5.246094 -11.558594 8.882812 -3.640625 17.125 -3.640625 C 21.511719 -3.640625 25.578125 -5.03125 25.578125 -10.917969 C 25.578125 -17.445312 20.335938 -19.585938 14.234375 -22.261719 C 12.199219 -23.117188 2.140625 -25.792969 2.140625 -36.066406 C 2.140625 -42.0625 8.453125 -47.945312 21.191406 -47.945312 Z M 21.191406 -47.945312 "/></g></g></g></svg>