<svg xmlns="http://www.w3.org/2000/svg" xmlns:xlink="http://www.w3.org/1999/xlink" width="135" zoomAndPan="magnify" viewBox="0 0 101.25 101.249999" height="135" preserveAspectRatio="xMidYMid meet" version="1.0"><defs><clipPath id="737029100e"><path d="M 0 8 L 58 8 L 58 91 L 0 91 Z M 0 8 " clip-rule="nonzero"/></clipPath><clipPath id="2964eda0a2"><path d="M -4.832031 20.296875 L 46.003906 8.816406 L 63.882812 87.96875 L 13.046875 99.453125 Z M -4.832031 20.296875 " clip-rule="nonzero"/></clipPath><clipPath id="163f3c24b9"><path d="M -4.832031 20.296875 L 46.003906 8.816406 L 63.882812 87.96875 L 13.046875 99.453125 Z M -4.832031 20.296875 " clip-rule="nonzero"/></clipPath><clipPath id="acc22bf874"><path d="M -4.832031 20.296875 L 46.003906 8.816406 L 63.882812 87.96875 L 13.046875 99.453125 Z M -4.832031 20.296875 " clip-rule="nonzero"/></clipPath><clipPath id="02cd4532f6"><path d="M 43 8 L 100.503906 8 L 100.503906 91 L 43 91 Z M 43 8 " clip-rule="nonzero"/></clipPath><clipPath id="19556fd06e"><path d="M 54.191406 8.835938 L 105.242188 19.316406 L 88.925781 98.808594 L 37.875 88.328125 Z M 54.191406 8.835938 " clip-rule="nonzero"/></clipPath><clipPath id="fb3473c3cb"><path d="M 105.152344 19.296875 L 54.101562 8.816406 L 37.785156 88.308594 L 88.832031 98.789062 Z M 105.152344 19.296875 " clip-rule="nonzero"/></clipPath><clipPath id="2146176fe8"><path d="M 105.152344 19.296875 L 54.101562 8.816406 L 37.785156 88.308594 L 88.832031 98.789062 Z M 105.152344 19.296875 " clip-rule="nonzero"/></clipPath></defs><g clip-path="url(#737029100e)"><g clip-path="url(#2964eda0a2)"><g clip-path="url(#163f3c24b9)"><g clip-path="url(#acc22bf874)"><path fill="#687a61" d="M 33.933594 48.417969 C 32.515625 46.78125 30.265625 44.824219 27.398438 42.5625 C 24.535156 40.300781 22.699219 40.167969 17.96875 38.964844 C 13.238281 37.761719 -0.410156 39.808594 0.0546875 41.871094 C 0.832031 45.316406 4.664062 46.75 8.933594 49.050781 C 13.199219 51.351562 14.546875 53.257812 19.125 53.53125 C 23.703125 53.800781 33.535156 50.78125 33.535156 50.78125 C 33.535156 50.78125 34.953125 52.863281 35.910156 53.953125 C 36.867188 55.042969 40.382812 60.628906 40.382812 60.628906 L 38.855469 61.226562 C 36.390625 62.035156 35.9375 65.152344 35.929688 67.15625 C 35.925781 69.160156 38.699219 70.953125 40.261719 71.253906 L 43.496094 71.859375 C 43.496094 71.859375 44.957031 77.804688 45.949219 81.351562 C 47.625 87.324219 50.933594 90.894531 50.933594 90.894531 L 52.570312 90.527344 L 50.113281 84.640625 L 45.152344 72.253906 C 54.191406 72.722656 57.382812 69.492188 57.382812 69.492188 C 56.933594 58.449219 53.015625 55.730469 50 55.9375 C 46.980469 56.140625 46.722656 57.105469 44.460938 58.757812 C 43.445312 59.507812 41.792969 60.132812 41.792969 60.132812 L 38.511719 47.695312 C 38.511719 47.695312 40.890625 44.339844 44.058594 42.363281 C 47.226562 40.386719 46.730469 32.8125 46.761719 30.132812 C 46.792969 27.453125 47.445312 19.324219 47.441406 17.277344 C 47.4375 15.230469 45.554688 8.917969 45.554688 8.917969 C 45.554688 8.917969 43.777344 10.105469 40.527344 14.132812 C 37.273438 18.164062 34.160156 32.042969 34.894531 39.417969 C 35.625 46.789062 36.980469 52.125 36.980469 52.125 C 36.980469 52.125 35.371094 50.054688 33.933594 48.417969 Z M 33.933594 48.417969 " fill-opacity="1" fill-rule="nonzero"/></g></g></g></g><g clip-path="url(#02cd4532f6)"><g clip-path="url(#19556fd06e)"><g clip-path="url(#fb3473c3cb)"><g clip-path="url(#2146176fe8)"><path fill="#687a61" d="M 66.945312 48.175781 C 68.335938 46.511719 70.542969 44.511719 73.363281 42.191406 C 76.183594 39.875 78.019531 39.707031 82.722656 38.410156 C 87.425781 37.113281 101.117188 38.890625 100.691406 40.960938 C 99.980469 44.421875 96.175781 45.929688 91.957031 48.316406 C 87.734375 50.699219 86.425781 52.632812 81.851562 52.992188 C 77.28125 53.355469 67.390625 50.527344 67.390625 50.527344 C 67.390625 50.527344 66.015625 52.640625 65.078125 53.746094 C 64.144531 54.855469 60.742188 60.511719 60.742188 60.511719 L 62.277344 61.078125 C 64.761719 61.839844 65.273438 64.945312 65.316406 66.949219 C 65.363281 68.953125 62.625 70.800781 61.066406 71.128906 L 57.847656 71.800781 C 57.847656 71.800781 56.503906 77.773438 55.582031 81.335938 C 54.023438 87.34375 50.785156 90.976562 50.785156 90.976562 L 49.144531 90.640625 L 51.484375 84.707031 L 56.199219 72.226562 C 47.171875 72.875 43.914062 69.707031 43.914062 69.707031 C 44.148438 58.65625 48.011719 55.859375 51.035156 56.007812 C 54.054688 56.15625 54.332031 57.113281 56.625 58.722656 C 57.65625 59.449219 59.320312 60.042969 59.320312 60.042969 L 62.355469 47.542969 C 62.355469 47.542969 59.910156 44.234375 56.703125 42.320312 C 53.5 40.40625 53.847656 32.824219 53.761719 30.144531 C 53.675781 27.46875 52.867188 19.351562 52.828125 17.304688 C 52.792969 15.257812 54.550781 8.910156 54.550781 8.910156 C 54.550781 8.910156 56.351562 10.0625 59.679688 14.027344 C 63.011719 17.992188 66.398438 31.808594 65.808594 39.195312 C 65.222656 46.582031 63.976562 51.941406 63.976562 51.941406 C 63.976562 51.941406 65.542969 49.839844 66.945312 48.175781 Z M 66.945312 48.175781 " fill-opacity="1" fill-rule="nonzero"/></g></g></g></g></svg>